<?xml version="1.0" encoding="iso-8859-1"?>
<!-- Uploaded to: SVG Repo, www.svgrepo.com, Generator: SVG Repo Mixer Tools -->
<svg height="800px" width="800px" version="1.1" id="Layer_1" xmlns="http://www.w3.org/2000/svg" xmlns:xlink="http://www.w3.org/1999/xlink" 
	 viewBox="0 0 512 512" xml:space="preserve">
<circle style="fill:#FF7F4F;" cx="256" cy="256" r="256"/>
<path style="fill:#E03A00;" d="M288.696,509.931c111.383-14.2,200.399-99.978,219.495-209.758l-68.306-68.308l-366.492,8.549
	l35.071,34.118l-17.167,38.709L288.696,509.931z"/>
<path style="fill:#FFFFFF;" d="M208.305,318.923H104.582c-10.631,0-19.251-8.618-19.251-19.251v-46.833
	c0-10.631,8.618-19.251,19.251-19.251h103.722c10.631,0,19.249,8.618,19.249,19.251v46.833
	C227.556,310.305,218.938,318.923,208.305,318.923z"/>
<path style="fill:#5E92BC;" d="M323.806,281.859h91.941c6.03,0,10.918-4.889,10.918-10.918v-22.985
	c0-6.03-4.889-10.918-10.918-10.918h-91.941c-6.03,0-10.918,4.889-10.918,10.918v22.985
	C312.889,276.97,317.778,281.859,323.806,281.859z"/>
<path style="fill:#DDDDDD;" d="M295.362,281.859h91.941c6.03,0,10.918-4.889,10.918-10.918v-22.985
	c0-6.03-4.889-10.918-10.918-10.918h-91.941c-6.03,0-10.918,4.889-10.918,10.918v22.985
	C284.444,276.97,289.333,281.859,295.362,281.859z"/>
<path style="fill:#444444;" d="M433.131,243.071H78.869c-4.284,0-7.758-3.474-7.758-7.758l0,0c0-4.284,3.474-7.758,7.758-7.758
	h354.263c4.284,0,7.758,3.474,7.758,7.758l0,0C440.889,239.597,437.415,243.071,433.131,243.071z"/>
<g>
	<path style="fill:#353535;" d="M433.131,227.556H255.426v15.515h177.705c4.284,0,7.758-3.474,7.758-7.758
		S437.415,227.556,433.131,227.556z"/>
	<circle style="fill:#353535;" cx="355.987" cy="261.172" r="9.481"/>
</g>
</svg>